<?xml version="1.0" encoding="UTF-8" standalone="no"?>
<!-- Created with Inkscape (http://www.inkscape.org/) -->

<svg
   xmlns:dc="http://purl.org/dc/elements/1.1/"
   xmlns:cc="http://creativecommons.org/ns#"
   xmlns:rdf="http://www.w3.org/1999/02/22-rdf-syntax-ns#"
   xmlns:svg="http://www.w3.org/2000/svg"
   xmlns="http://www.w3.org/2000/svg"
   xmlns:sodipodi="http://sodipodi.sourceforge.net/DTD/sodipodi-0.dtd"
   xmlns:inkscape="http://www.inkscape.org/namespaces/inkscape"
   width="64"
   height="64"
   viewBox="0 0 16.933333 16.933334"
   version="1.1"
   id="svg8"
   inkscape:version="0.92.4 (5da689c313, 2019-01-14)"
   sodipodi:docname="brand.svg"
   inkscape:export-filename="U:\home\hallison\private\drawght\drawght.github.io\assets\images\brand.png"
   inkscape:export-xdpi="870"
   inkscape:export-ydpi="870">
  <defs
     id="defs2" />
  <sodipodi:namedview
     id="base"
     pagecolor="#ffffff"
     bordercolor="#666666"
     borderopacity="1.0"
     inkscape:pageopacity="0.0"
     inkscape:pageshadow="2"
     inkscape:zoom="11.921875"
     inkscape:cx="32"
     inkscape:cy="32"
     inkscape:document-units="mm"
     inkscape:current-layer="layer2"
     showgrid="false"
     showguides="true"
     inkscape:guide-bbox="true"
     inkscape:window-width="1920"
     inkscape:window-height="986"
     inkscape:window-x="-11"
     inkscape:window-y="49"
     inkscape:window-maximized="1"
     units="px">
    <sodipodi:guide
       position="27.592487,196.05626"
       orientation="1,0"
       id="guide825"
       inkscape:locked="false" />
    <sodipodi:guide
       position="46.458434,195.22517"
       orientation="1,0"
       id="guide827"
       inkscape:locked="false" />
  </sodipodi:namedview>
  <metadata
     id="metadata5">
    <rdf:RDF>
      <cc:Work
         rdf:about="">
        <dc:format>image/svg+xml</dc:format>
        <dc:type
           rdf:resource="http://purl.org/dc/dcmitype/StillImage" />
        <dc:title />
      </cc:Work>
    </rdf:RDF>
  </metadata>
  <g
     inkscape:groupmode="layer"
     id="layer2"
     inkscape:label="Background"
     style="display:none">
    <rect
       style="opacity:0.1;fill:#714214;fill-opacity:1;stroke:none;stroke-width:2.11666656;stroke-linejoin:round;stroke-miterlimit:4;stroke-dasharray:none;stroke-opacity:1"
       id="rect828"
       width="16.933332"
       height="16.933332"
       x="4.4504802e-07"
       y="4.4504802e-07" />
  </g>
  <g
     inkscape:label="Brand"
     inkscape:groupmode="layer"
     id="layer1"
     transform="translate(0,-280.06665)"
     style="display:inline">
    <g
       id="g4599"
       transform="translate(-2.6333333e-6,1.6666666e-6)">
      <text
         id="text835"
         y="288.74695"
         x="-2.3387337"
         style="font-style:normal;font-variant:normal;font-weight:normal;font-stretch:normal;font-size:4.93888855px;line-height:1.25;font-family:'Poor Richard';-inkscape-font-specification:'Poor Richard';letter-spacing:0px;word-spacing:0px;fill:#000000;fill-opacity:1;stroke:none;stroke-width:0.26458332"
         xml:space="preserve"><tspan
           style="font-style:normal;font-variant:normal;font-weight:normal;font-stretch:normal;font-family:'Poor Richard';-inkscape-font-specification:'Poor Richard';stroke-width:0.26458332"
           y="293.2009"
           x="-2.3387337"
           id="tspan833"
           sodipodi:role="line" /></text>
      <text
         id="text839"
         y="288.11728"
         x="-2.653563"
         style="font-style:normal;font-variant:normal;font-weight:normal;font-stretch:normal;font-size:4.93888855px;line-height:1.25;font-family:'Poor Richard';-inkscape-font-specification:'Poor Richard';letter-spacing:0px;word-spacing:0px;fill:#000000;fill-opacity:1;stroke:none;stroke-width:0.26458332"
         xml:space="preserve"><tspan
           style="font-style:normal;font-variant:normal;font-weight:normal;font-stretch:normal;font-family:'Poor Richard';-inkscape-font-specification:'Poor Richard';stroke-width:0.26458332"
           y="292.57123"
           x="-2.653563"
           id="tspan837"
           sodipodi:role="line" /></text>
      <g
         transform="translate(-2.7671056e-7,1.0821585e-5)"
         id="g4575">
        <g
           aria-label="."
           style="font-style:normal;font-variant:normal;font-weight:normal;font-stretch:normal;font-size:4.93888855px;line-height:1.25;font-family:'Poor Richard';-inkscape-font-specification:'Poor Richard';letter-spacing:0px;word-spacing:0px;fill:#000000;fill-opacity:1;stroke:none;stroke-width:0.26458332"
           id="text843"
           transform="matrix(4.1995938,0,0,4.3026053,15.762574,-948.10872)">
          <path
             d="m -1.7384952,287.78601 q 0.1036974,0 0.1784559,0.0699 0.074759,0.0699 0.074759,0.18087 0,0.11334 -0.072347,0.17846 -0.072347,0.0627 -0.1712212,0.0627 -0.086816,0 -0.1736328,-0.0723 -0.086816,-0.0748 -0.086816,-0.16881 0,-0.10128 0.074759,-0.17604 0.074759,-0.0748 0.1760444,-0.0748 z"
             style="font-style:normal;font-variant:normal;font-weight:normal;font-stretch:normal;font-family:'Poor Richard';-inkscape-font-specification:'Poor Richard';fill:#000000;fill-opacity:1;stroke-width:0.26458332"
             id="path848"
             inkscape:connector-curvature="0" />
        </g>
        <g
           transform="matrix(4.1995938,0,0,4.3026053,15.762574,-953.40039)"
           id="g863"
           style="font-style:normal;font-variant:normal;font-weight:normal;font-stretch:normal;font-size:4.93888855px;line-height:1.25;font-family:'Poor Richard';-inkscape-font-specification:'Poor Richard';letter-spacing:0px;word-spacing:0px;fill:#000000;fill-opacity:1;stroke:none;stroke-width:0.26458332"
           aria-label=".">
          <path
             inkscape:connector-curvature="0"
             id="path861"
             style="font-style:normal;font-variant:normal;font-weight:normal;font-stretch:normal;font-family:'Poor Richard';-inkscape-font-specification:'Poor Richard';fill:#000000;fill-opacity:1;stroke-width:0.26458332"
             d="m -1.7384952,287.78601 q 0.1036974,0 0.1784559,0.0699 0.074759,0.0699 0.074759,0.18087 0,0.11334 -0.072347,0.17846 -0.072347,0.0627 -0.1712212,0.0627 -0.086816,0 -0.1736328,-0.0723 -0.086816,-0.0748 -0.086816,-0.16881 0,-0.10128 0.074759,-0.17604 0.074759,-0.0748 0.1760444,-0.0748 z" />
        </g>
      </g>
      <g
         id="g4585">
        <path
           inkscape:connector-curvature="0"
           id="path838"
           style="font-style:normal;font-variant:normal;font-weight:normal;font-stretch:normal;font-size:4.93888855px;line-height:1.25;font-family:'Playfair Display';-inkscape-font-specification:'Playfair Display';letter-spacing:0px;word-spacing:0px;fill:#000000;fill-opacity:1;stroke:none;stroke-width:0.84436733"
           d="m 11.377092,281.38971 v 0.27974 q 0.556582,0.0149 0.843303,0.221 0.286718,0.19146 0.387917,0.85429 0.118053,0.64809 0.118053,2.04739 0,1.32563 0.337329,2.07682 0.337328,0.7512 0.87703,1.11946 0.556583,0.35348 1.197489,0.51551 -0.640906,0.16195 -1.197489,0.53026 -0.53971,0.36823 -0.87703,1.11941 -0.337329,0.7365 -0.337329,2.06213 0,1.08998 -0.06744,1.72333 -0.05061,0.63337 -0.202405,0.94269 -0.134922,0.32402 -0.404782,0.41242 -0.26985,0.10317 -0.674643,0.10317 v 0.27974 q 1.062559,0 1.686603,-0.30933 0.640908,-0.29466 0.910764,-1.04578 0.269849,-0.75118 0.269849,-2.10628 0,-1.3846 0.101186,-2.13578 0.118054,-0.76591 0.387918,-1.08996 0.269848,-0.32404 0.792704,-0.35351 h 0.08431 v -0.26512 h -0.08431 q -0.522849,-0.0298 -0.792704,-0.3388 -0.269849,-0.32403 -0.387918,-1.08995 -0.101186,-0.76595 -0.101186,-2.15049 0,-1.29618 -0.269849,-2.03266 -0.269849,-0.75119 -0.910764,-1.06051 -0.624044,-0.30933 -1.686603,-0.30933 z" />
        <path
           d="m 5.5562432,281.3897 v 0.27974 q -0.5565818,0.0149 -0.8433034,0.221 -0.2867176,0.19146 -0.3879164,0.85429 -0.1180534,0.64809 -0.1180534,2.04739 0,1.32563 -0.3373284,2.07682 -0.3373283,0.7512 -0.8770301,1.11946 -0.5565832,0.35348 -1.1974892,0.51551 0.640906,0.16195 1.1974892,0.53026 0.5397098,0.36823 0.8770301,1.11941 0.3373284,0.7365 0.3373284,2.06213 0,1.08998 0.06744,1.72333 0.050613,0.63337 0.2024055,0.94269 0.1349215,0.32402 0.4047818,0.41242 0.2698496,0.10317 0.6746433,0.10317 v 0.27974 q -1.0625597,0 -1.686603,-0.30933 -0.6409086,-0.29466 -0.9107648,-1.04578 -0.2698483,-0.75118 -0.2698483,-2.10628 0,-1.3846 -0.1011867,-2.13578 -0.1180535,-0.76591 -0.3879177,-1.08996 -0.2698483,-0.32404 -0.7927035,-0.35351 h -0.084307 v -0.26512 h 0.084307 q 0.5228485,-0.0298 0.7927035,-0.3388 0.2698496,-0.32403 0.3879177,-1.08995 0.1011867,-0.76595 0.1011867,-2.15049 0,-1.29618 0.2698483,-2.03266 0.2698496,-0.75119 0.9107648,-1.06051 0.6240433,-0.30933 1.686603,-0.30933 z"
           style="font-style:normal;font-variant:normal;font-weight:normal;font-stretch:normal;font-size:4.93888855px;line-height:1.25;font-family:'Playfair Display';-inkscape-font-specification:'Playfair Display';letter-spacing:0px;word-spacing:0px;fill:#000000;fill-opacity:1;stroke:none;stroke-width:0.84436733"
           id="path4565"
           inkscape:connector-curvature="0" />
      </g>
    </g>
  </g>
</svg>
