<?xml version="1.0" encoding="UTF-8" standalone="no"?>
<!-- Created with Inkscape (http://www.inkscape.org/) -->

<svg
   xmlns:dc="http://purl.org/dc/elements/1.1/"
   xmlns:cc="http://creativecommons.org/ns#"
   xmlns:rdf="http://www.w3.org/1999/02/22-rdf-syntax-ns#"
   xmlns:svg="http://www.w3.org/2000/svg"
   xmlns="http://www.w3.org/2000/svg"
   xmlns:sodipodi="http://sodipodi.sourceforge.net/DTD/sodipodi-0.dtd"
   xmlns:inkscape="http://www.inkscape.org/namespaces/inkscape"
   width="64"
   height="64"
   viewBox="0 0 16.933333 16.933334"
   version="1.1"
   id="svg8"
   inkscape:version="0.92.4 (5da689c313, 2019-01-14)"
   sodipodi:docname="brand.svg">
  <defs
     id="defs2" />
  <sodipodi:namedview
     id="base"
     pagecolor="#ffffff"
     bordercolor="#666666"
     borderopacity="1.0"
     inkscape:pageopacity="0.0"
     inkscape:pageshadow="2"
     inkscape:zoom="11.921875"
     inkscape:cx="32"
     inkscape:cy="32"
     inkscape:document-units="mm"
     inkscape:current-layer="layer1"
     showgrid="false"
     showguides="true"
     inkscape:guide-bbox="true"
     inkscape:window-width="1920"
     inkscape:window-height="986"
     inkscape:window-x="-11"
     inkscape:window-y="49"
     inkscape:window-maximized="1"
     units="px">
    <sodipodi:guide
       position="27.592487,196.05626"
       orientation="1,0"
       id="guide825"
       inkscape:locked="false" />
    <sodipodi:guide
       position="46.458434,195.22517"
       orientation="1,0"
       id="guide827"
       inkscape:locked="false" />
  </sodipodi:namedview>
  <metadata
     id="metadata5">
    <rdf:RDF>
      <cc:Work
         rdf:about="">
        <dc:format>image/svg+xml</dc:format>
        <dc:type
           rdf:resource="http://purl.org/dc/dcmitype/StillImage" />
        <dc:title />
      </cc:Work>
    </rdf:RDF>
  </metadata>
  <g
     inkscape:label="Camada 1"
     inkscape:groupmode="layer"
     id="layer1"
     transform="translate(0,-280.06665)">
    <g
       id="g1520"
       transform="translate(4.8269987,-1.2982962)">
      <text
         id="text835"
         y="290.04526"
         x="-7.1657324"
         style="font-style:normal;font-variant:normal;font-weight:normal;font-stretch:normal;font-size:4.93888855px;line-height:1.25;font-family:'Poor Richard';-inkscape-font-specification:'Poor Richard';letter-spacing:0px;word-spacing:0px;fill:#000000;fill-opacity:1;stroke:none;stroke-width:0.26458332"
         xml:space="preserve"><tspan
           style="font-style:normal;font-variant:normal;font-weight:normal;font-stretch:normal;font-family:'Poor Richard';-inkscape-font-specification:'Poor Richard';stroke-width:0.26458332"
           y="294.49921"
           x="-7.1657324"
           id="tspan833"
           sodipodi:role="line" /></text>
      <text
         id="text839"
         y="289.41559"
         x="-7.4805617"
         style="font-style:normal;font-variant:normal;font-weight:normal;font-stretch:normal;font-size:4.93888855px;line-height:1.25;font-family:'Poor Richard';-inkscape-font-specification:'Poor Richard';letter-spacing:0px;word-spacing:0px;fill:#000000;fill-opacity:1;stroke:none;stroke-width:0.26458332"
         xml:space="preserve"><tspan
           style="font-style:normal;font-variant:normal;font-weight:normal;font-stretch:normal;font-family:'Poor Richard';-inkscape-font-specification:'Poor Richard';stroke-width:0.26458332"
           y="293.86954"
           x="-7.4805617"
           id="tspan837"
           sodipodi:role="line" /></text>
      <g
         style="fill:#000000;fill-opacity:1"
         transform="translate(-4.8269985,1.2982727)"
         id="g873">
        <g
           aria-label="."
           style="font-style:normal;font-variant:normal;font-weight:normal;font-stretch:normal;font-size:4.93888855px;line-height:1.25;font-family:'Poor Richard';-inkscape-font-specification:'Poor Richard';letter-spacing:0px;word-spacing:0px;fill:#000000;fill-opacity:1;stroke:none;stroke-width:0.26458332"
           id="text843"
           transform="matrix(4.1995938,0,0,4.3026053,15.762574,-948.1087)">
          <path
             d="m -1.7384952,287.78601 q 0.1036974,0 0.1784559,0.0699 0.074759,0.0699 0.074759,0.18087 0,0.11334 -0.072347,0.17846 -0.072347,0.0627 -0.1712212,0.0627 -0.086816,0 -0.1736328,-0.0723 -0.086816,-0.0748 -0.086816,-0.16881 0,-0.10128 0.074759,-0.17604 0.074759,-0.0748 0.1760444,-0.0748 z"
             style="font-style:normal;font-variant:normal;font-weight:normal;font-stretch:normal;font-family:'Poor Richard';-inkscape-font-specification:'Poor Richard';fill:#000000;fill-opacity:1;stroke-width:0.26458332"
             id="path848"
             inkscape:connector-curvature="0" />
        </g>
        <g
           transform="matrix(4.1995938,0,0,4.3026053,15.762574,-953.40037)"
           id="g863"
           style="font-style:normal;font-variant:normal;font-weight:normal;font-stretch:normal;font-size:4.93888855px;line-height:1.25;font-family:'Poor Richard';-inkscape-font-specification:'Poor Richard';letter-spacing:0px;word-spacing:0px;fill:#000000;fill-opacity:1;stroke:none;stroke-width:0.26458332"
           aria-label=".">
          <path
             inkscape:connector-curvature="0"
             id="path861"
             style="font-style:normal;font-variant:normal;font-weight:normal;font-stretch:normal;font-family:'Poor Richard';-inkscape-font-specification:'Poor Richard';fill:#000000;fill-opacity:1;stroke-width:0.26458332"
             d="m -1.7384952,287.78601 q 0.1036974,0 0.1784559,0.0699 0.074759,0.0699 0.074759,0.18087 0,0.11334 -0.072347,0.17846 -0.072347,0.0627 -0.1712212,0.0627 -0.086816,0 -0.1736328,-0.0723 -0.086816,-0.0748 -0.086816,-0.16881 0,-0.10128 0.074759,-0.17604 0.074759,-0.0748 0.1760444,-0.0748 z" />
        </g>
      </g>
      <g
         style="fill:#000800;fill-opacity:1"
         id="g879"
         transform="translate(-4.8269985,1.2982992)">
        <g
           aria-label="}"
           style="font-style:normal;font-variant:normal;font-weight:normal;font-stretch:normal;font-size:4.93888855px;line-height:1.25;font-family:'Poor Richard';-inkscape-font-specification:'Poor Richard';letter-spacing:0px;word-spacing:0px;fill:#000800;fill-opacity:1;stroke:none;stroke-width:0.26458332"
           id="text831"
           transform="matrix(2.7485835,0,0,3.0649874,14.265189,-587.74781)">
          <path
             d="m 0.4894287,285.96429 q -0.1591634,0.0579 -0.25803764,0.18569 -0.0964627,0.12781 -0.0964627,0.30386 v 0.65112 q 0,0.25562 -0.0434082,0.40514 -0.04099664,0.14711 -0.12781304,0.26769 -0.08440483,0.12299 -0.21221786,0.22668 -0.12540147,0.1037 -0.2387451,0.16399 -0.11093207,0.0627 -0.144694,0.0627 -0.0337619,0 -0.0337619,-0.094 0,-0.0121 0.0361735,-0.0458 0.16398654,-0.16399 0.2242757,-0.40032 0.0602892,-0.23633 0.0602892,-0.51125 v -0.74035 q 0,-0.18811 0.1229899,-0.33039 0.12540147,-0.14469 0.3255615,-0.21945 -0.2025716,-0.0723 -0.3255615,-0.20981 -0.1229899,-0.13987 -0.1229899,-0.31832 v -0.74036 q 0,-0.27733 -0.0602892,-0.51125 -0.0602892,-0.23633 -0.2242757,-0.40032 l -0.0361735,-0.0458 q 0,-0.0941 0.0337619,-0.0941 0.0409966,0 0.1953369,0.0916 0.15675183,0.0892 0.31591523,0.25563 0.16157497,0.1664 0.22909883,0.43167 0.0265272,0.10369 0.0265272,0.34726 v 0.65113 q 0,0.16639 0.0964627,0.28938 0.0988742,0.12299 0.25803764,0.18087 z"
             style="font-style:normal;font-variant:normal;font-weight:normal;font-stretch:normal;font-family:'Poor Richard';-inkscape-font-specification:'Poor Richard';fill:#000800;fill-opacity:1;stroke-width:0.26458332"
             id="path845"
             inkscape:connector-curvature="0" />
        </g>
        <g
           transform="matrix(-2.7485835,0,0,3.0649874,2.6681439,-587.74781)"
           id="g867"
           style="font-style:normal;font-variant:normal;font-weight:normal;font-stretch:normal;font-size:4.93888855px;line-height:1.25;font-family:'Poor Richard';-inkscape-font-specification:'Poor Richard';letter-spacing:0px;word-spacing:0px;fill:#000800;fill-opacity:1;stroke:none;stroke-width:0.26458332"
           aria-label="}">
          <path
             inkscape:connector-curvature="0"
             id="path865"
             style="font-style:normal;font-variant:normal;font-weight:normal;font-stretch:normal;font-family:'Poor Richard';-inkscape-font-specification:'Poor Richard';fill:#000800;fill-opacity:1;stroke-width:0.26458332"
             d="m 0.4894287,285.96429 q -0.1591634,0.0579 -0.25803764,0.18569 -0.0964627,0.12781 -0.0964627,0.30386 v 0.65112 q 0,0.25562 -0.0434082,0.40514 -0.04099664,0.14711 -0.12781304,0.26769 -0.08440483,0.12299 -0.21221786,0.22668 -0.12540147,0.1037 -0.2387451,0.16399 -0.11093207,0.0627 -0.144694,0.0627 -0.0337619,0 -0.0337619,-0.094 0,-0.0121 0.0361735,-0.0458 0.16398654,-0.16399 0.2242757,-0.40032 0.0602892,-0.23633 0.0602892,-0.51125 v -0.74035 q 0,-0.18811 0.1229899,-0.33039 0.12540147,-0.14469 0.3255615,-0.21945 -0.2025716,-0.0723 -0.3255615,-0.20981 -0.1229899,-0.13987 -0.1229899,-0.31832 v -0.74036 q 0,-0.27733 -0.0602892,-0.51125 -0.0602892,-0.23633 -0.2242757,-0.40032 l -0.0361735,-0.0458 q 0,-0.0941 0.0337619,-0.0941 0.0409966,0 0.1953369,0.0916 0.15675183,0.0892 0.31591523,0.25563 0.16157497,0.1664 0.22909883,0.43167 0.0265272,0.10369 0.0265272,0.34726 v 0.65113 q 0,0.16639 0.0964627,0.28938 0.0988742,0.12299 0.25803764,0.18087 z" />
        </g>
      </g>
    </g>
  </g>
</svg>
